<svg xmlns="http://www.w3.org/2000/svg" width="200" height="133" viewBox="0 0 199 133"><path d="M0 0h199v133H0z" style="fill:#cf142b;fill-opacity:1;stroke:none"/><path d="M0 88.668h199V0H0Zm0 0" style="stroke:none;fill-rule:nonzero;fill:#00247d;fill-opacity:1"/><path d="M0 0h199v44.332H0Zm0 0" style="stroke:none;fill-rule:nonzero;fill:#fc0;fill-opacity:1"/><path d="m56.906 76.895 4.524 3.543 2.12-2.72Zm0 0" style="stroke:none;fill-rule:nonzero;fill:#fff;fill-opacity:1"/><path d="m56.906 76.895 5.735.203-.118 3.449Zm0 0" style="stroke:none;fill-rule:nonzero;fill:#fff;fill-opacity:1"/><path d="m62.5 73.113-1.965 5.407 3.238 1.18Zm0 0" style="stroke:none;fill-rule:nonzero;fill:#fff;fill-opacity:1"/><path d="m62.5 73.113 1.582 5.532-3.309.949Zm0 0" style="stroke:none;fill-rule:nonzero;fill:#fff;fill-opacity:1"/><path d="m58.766 83.398 4.757-3.218-1.925-2.864Zm0 0" style="stroke:none;fill-rule:nonzero;fill:#fff;fill-opacity:1"/><path d="m58.766 83.398 1.964-5.406 3.235 1.18Zm0 0" style="stroke:none;fill-rule:nonzero;fill:#fff;fill-opacity:1"/><path d="m67.816 77.277-5.734-.199-.121 3.45Zm0 0" style="stroke:none;fill-rule:nonzero;fill:#fff;fill-opacity:1"/><path d="m67.816 77.277-4.757 3.22-1.926-2.864Zm0 0" style="stroke:none;fill-rule:nonzero;fill:#fff;fill-opacity:1"/><path d="m65.508 83.633-1.582-5.531-3.309.953Zm0 0" style="stroke:none;fill-rule:nonzero;fill:#fff;fill-opacity:1"/><path d="m65.508 83.633-4.524-3.543 2.121-2.719ZM65.363 63.754l2.688 5.082 3.043-1.617Zm0 0" style="stroke:none;fill-rule:nonzero;fill:#fff;fill-opacity:1"/><path d="m65.363 63.754 5.157 2.527-1.512 3.102Zm0 0" style="stroke:none;fill-rule:nonzero;fill:#fff;fill-opacity:1"/><path d="m72.008 62.586-3.988 4.133 2.472 2.402Zm0 0" style="stroke:none;fill-rule:nonzero;fill:#fff;fill-opacity:1"/><path d="m72.008 62.586-.805 5.695-3.41-.484Zm0 0" style="stroke:none;fill-rule:nonzero;fill:#fff;fill-opacity:1"/><path d="m64.418 70.45 5.652-.993-.593-3.402Zm0 0" style="stroke:none;fill-rule:nonzero;fill:#fff;fill-opacity:1"/><path d="m64.418 70.45 3.992-4.134 2.473 2.399Zm0 0" style="stroke:none;fill-rule:nonzero;fill:#fff;fill-opacity:1"/><path d="m75.172 68.563-5.156-2.528-1.516 3.102Zm0 0" style="stroke:none;fill-rule:nonzero;fill:#fff;fill-opacity:1"/><path d="m75.172 68.563-5.656.992-.594-3.403Zm0 0" style="stroke:none;fill-rule:nonzero;fill:#fff;fill-opacity:1"/><path d="m70.477 73.422.804-5.695-3.406-.485Zm0 0" style="stroke:none;fill-rule:nonzero;fill:#fff;fill-opacity:1"/><path d="m70.477 73.422-2.688-5.082 3.043-1.617ZM77.14 54.473l1.196 5.629 3.367-.72Zm0 0" style="stroke:none;fill-rule:nonzero;fill:#fff;fill-opacity:1"/><path d="m77.14 54.473 4.266 3.847-2.304 2.567Zm0 0" style="stroke:none;fill-rule:nonzero;fill:#fff;fill-opacity:1"/><path d="m83.852 55.18-4.97 2.875 1.723 2.992Zm0 0" style="stroke:none;fill-rule:nonzero;fill:#fff;fill-opacity:1"/><path d="m83.852 55.18-2.332 5.254-3.149-1.403Zm0 0" style="stroke:none;fill-rule:nonzero;fill:#fff;fill-opacity:1"/><path d="m74.398 60.652 5.707.602.36-3.434Zm0 0" style="stroke:none;fill-rule:nonzero;fill:#fff;fill-opacity:1"/><path d="m74.398 60.652 4.97-2.879 1.722 2.993Zm0 0" style="stroke:none;fill-rule:nonzero;fill:#fff;fill-opacity:1"/><path d="m85.258 61.797-4.266-3.852-2.305 2.567Zm0 0" style="stroke:none;fill-rule:nonzero;fill:#fff;fill-opacity:1"/><path d="m85.258 61.797-5.711-.602.36-3.433Zm0 0" style="stroke:none;fill-rule:nonzero;fill:#fff;fill-opacity:1"/><path d="m79.414 65.176 2.332-5.254-3.144-1.406Zm0 0" style="stroke:none;fill-rule:nonzero;fill:#fff;fill-opacity:1"/><path d="m79.414 65.176-1.195-5.63 3.367-.714ZM91.586 49.328l-.8 5.695 3.41.48Zm0 0" style="stroke:none;fill-rule:nonzero;fill:#fff;fill-opacity:1"/><path d="m91.586 49.328 2.695 5.078-3.043 1.621Zm0 0" style="stroke:none;fill-rule:nonzero;fill:#fff;fill-opacity:1"/><path d="m97.648 52.293-5.652 1 .598 3.398Zm0 0" style="stroke:none;fill-rule:nonzero;fill:#fff;fill-opacity:1"/><path d="m97.648 52.293-3.984 4.137-2.48-2.399Zm0 0" style="stroke:none;fill-rule:nonzero;fill:#fff;fill-opacity:1"/><path d="m86.898 54.191 5.157 2.524 1.511-3.102Zm0 0" style="stroke:none;fill-rule:nonzero;fill:#fff;fill-opacity:1"/><path d="m86.898 54.191 5.653-.996.597 3.399Zm0 0" style="stroke:none;fill-rule:nonzero;fill:#fff;fill-opacity:1"/><path d="m96.71 58.992-2.694-5.082-3.04 1.621Zm0 0" style="stroke:none;fill-rule:nonzero;fill:#fff;fill-opacity:1"/><path d="m96.71 58.992-5.16-2.523 1.513-3.106Zm0 0" style="stroke:none;fill-rule:nonzero;fill:#fff;fill-opacity:1"/><path d="m90.066 60.164 3.985-4.137-2.477-2.398Zm0 0" style="stroke:none;fill-rule:nonzero;fill:#fff;fill-opacity:1"/><path d="m90.066 60.164.797-5.695 3.41.48ZM142.152 76.895l-4.523 3.543-2.121-2.72Zm0 0" style="stroke:none;fill-rule:nonzero;fill:#fff;fill-opacity:1"/><path d="m142.152 76.895-5.738.203.121 3.449Zm0 0" style="stroke:none;fill-rule:nonzero;fill:#fff;fill-opacity:1"/><path d="m136.559 73.113 1.96 5.407-3.234 1.18Zm0 0" style="stroke:none;fill-rule:nonzero;fill:#fff;fill-opacity:1"/><path d="m136.559 73.113-1.586 5.532 3.312.949Zm0 0" style="stroke:none;fill-rule:nonzero;fill:#fff;fill-opacity:1"/><path d="m140.29 83.398-4.759-3.218 1.926-2.864Zm0 0" style="stroke:none;fill-rule:nonzero;fill:#fff;fill-opacity:1"/><path d="m140.29 83.398-1.962-5.406-3.238 1.18Zm0 0" style="stroke:none;fill-rule:nonzero;fill:#fff;fill-opacity:1"/><path d="m131.238 77.277 5.739-.199.12 3.45Zm0 0" style="stroke:none;fill-rule:nonzero;fill:#fff;fill-opacity:1"/><path d="m131.238 77.277 4.758 3.22 1.93-2.864Zm0 0" style="stroke:none;fill-rule:nonzero;fill:#fff;fill-opacity:1"/><path d="m133.547 83.633 1.582-5.531 3.312.953Zm0 0" style="stroke:none;fill-rule:nonzero;fill:#fff;fill-opacity:1"/><path d="m133.547 83.633 4.523-3.543-2.12-2.719ZM133.695 63.754l-2.691 5.082-3.043-1.617Zm0 0" style="stroke:none;fill-rule:nonzero;fill:#fff;fill-opacity:1"/><path d="m133.695 63.754-5.156 2.527 1.512 3.102Zm0 0" style="stroke:none;fill-rule:nonzero;fill:#fff;fill-opacity:1"/><path d="m127.047 62.586 3.992 4.133-2.476 2.402Zm0 0" style="stroke:none;fill-rule:nonzero;fill:#fff;fill-opacity:1"/><path d="m127.047 62.586.805 5.695 3.41-.484Zm0 0" style="stroke:none;fill-rule:nonzero;fill:#fff;fill-opacity:1"/><path d="m134.64 70.45-5.652-.993.594-3.398Zm0 0" style="stroke:none;fill-rule:nonzero;fill:#fff;fill-opacity:1"/><path d="m134.64 70.45-3.992-4.134-2.476 2.399Zm0 0" style="stroke:none;fill-rule:nonzero;fill:#fff;fill-opacity:1"/><path d="m123.887 68.563 5.156-2.528 1.512 3.102Zm0 0" style="stroke:none;fill-rule:nonzero;fill:#fff;fill-opacity:1"/><path d="m123.887 68.563 5.652.992.594-3.403Zm0 0" style="stroke:none;fill-rule:nonzero;fill:#fff;fill-opacity:1"/><path d="m128.578 73.422-.805-5.695 3.41-.485Zm0 0" style="stroke:none;fill-rule:nonzero;fill:#fff;fill-opacity:1"/><path d="m128.578 73.422 2.692-5.082-3.043-1.617ZM121.914 54.473l-1.191 5.629-3.371-.72Zm0 0" style="stroke:none;fill-rule:nonzero;fill:#fff;fill-opacity:1"/><path d="m121.914 54.473-4.266 3.847 2.305 2.567Zm0 0" style="stroke:none;fill-rule:nonzero;fill:#fff;fill-opacity:1"/><path d="m115.203 55.18 4.973 2.875-1.723 2.992Zm0 0" style="stroke:none;fill-rule:nonzero;fill:#fff;fill-opacity:1"/><path d="m115.203 55.18 2.336 5.254 3.145-1.403Zm0 0" style="stroke:none;fill-rule:nonzero;fill:#fff;fill-opacity:1"/><path d="m124.66 60.652-5.71.602-.36-3.434Zm0 0" style="stroke:none;fill-rule:nonzero;fill:#fff;fill-opacity:1"/><path d="m124.66 60.652-4.972-2.879-1.723 2.993Zm0 0" style="stroke:none;fill-rule:nonzero;fill:#fff;fill-opacity:1"/><path d="m113.8 61.797 4.266-3.852 2.305 2.567Zm0 0" style="stroke:none;fill-rule:nonzero;fill:#fff;fill-opacity:1"/><path d="m113.8 61.797 5.708-.602-.36-3.433Zm0 0" style="stroke:none;fill-rule:nonzero;fill:#fff;fill-opacity:1"/><path d="m119.645 65.176-2.336-5.254 3.148-1.406Zm0 0" style="stroke:none;fill-rule:nonzero;fill:#fff;fill-opacity:1"/><path d="m119.645 65.176 1.195-5.63-3.371-.714ZM107.473 49.328l.797 5.695-3.41.48Zm0 0" style="stroke:none;fill-rule:nonzero;fill:#fff;fill-opacity:1"/><path d="m107.473 49.328-2.696 5.078 3.04 1.621Zm0 0" style="stroke:none;fill-rule:nonzero;fill:#fff;fill-opacity:1"/><path d="m101.406 52.293 5.653 1-.598 3.398Zm0 0" style="stroke:none;fill-rule:nonzero;fill:#fff;fill-opacity:1"/><path d="m101.406 52.293 3.989 4.137 2.476-2.399Zm0 0" style="stroke:none;fill-rule:nonzero;fill:#fff;fill-opacity:1"/><path d="M112.16 54.191 107 56.715l-1.508-3.102Zm0 0" style="stroke:none;fill-rule:nonzero;fill:#fff;fill-opacity:1"/><path d="m112.16 54.191-5.652-.996-.598 3.399Zm0 0" style="stroke:none;fill-rule:nonzero;fill:#fff;fill-opacity:1"/><path d="m102.348 58.992 2.695-5.082 3.039 1.621Zm0 0" style="stroke:none;fill-rule:nonzero;fill:#fff;fill-opacity:1"/><path d="m102.348 58.992 5.156-2.523-1.508-3.106Zm0 0" style="stroke:none;fill-rule:nonzero;fill:#fff;fill-opacity:1"/><path d="m108.992 60.164-3.988-4.137 2.476-2.398Zm0 0" style="stroke:none;fill-rule:nonzero;fill:#fff;fill-opacity:1"/><path d="m108.992 60.164-.8-5.695-3.41.48Zm0 0" style="stroke:none;fill-rule:nonzero;fill:#fff;fill-opacity:1"/></svg>